<svg xmlns="http://www.w3.org/2000/svg" viewBox="0 0 380.44 146.1"><defs><style>.cls-1{fill:#2d2d2d;}</style></defs><title>logo_gris</title><g id="Calque_2" data-name="Calque 2"><g id="Calque_1-2" data-name="Calque 1"><path class="cls-1" d="M64.85,54.22,52.18,66.89l6.65.05A19.8,19.8,0,1,1,39,86.74L39,80.09,26.3,92.78A33,33,0,1,0,64.85,54.22Z"/><polygon class="cls-1" points="25.78 93.29 25.78 146.1 38.98 146.1 38.98 80.09 25.78 93.29"/><path class="cls-1" d="M13.3,33.93a19.8,19.8,0,0,1,38.58-6.29l10-10A33,33,0,1,0,27,66.37L39.62,53.74H33.1A19.8,19.8,0,0,1,13.3,33.93Z"/><path class="cls-1" d="M105.76,48Q91.47,48,90.6,35.08h8.66q.06,5.75,6.44,5.75a7.29,7.29,0,0,0,4.24-1,3.08,3.08,0,0,0,1.45-2.59,2.1,2.1,0,0,0-.31-1.19,2.93,2.93,0,0,0-1.19-.89,16.13,16.13,0,0,0-2.45-.88q-1.58-.45-4.11-1.08-3.09-.75-5.31-1.52a12.51,12.51,0,0,1-3.67-1.91,6.83,6.83,0,0,1-2.14-2.81,11.32,11.32,0,0,1-.69-4.27,9.39,9.39,0,0,1,.94-4.17,9.84,9.84,0,0,1,2.66-3.33,13,13,0,0,1,4.16-2.22,17.15,17.15,0,0,1,5.44-.81q13.85,0,14.13,11.63h-8.35q-.31-4.44-5.38-4.44a10.63,10.63,0,0,0-2,.19,6.07,6.07,0,0,0-1.64.55,3.16,3.16,0,0,0-1.08.88,2.14,2.14,0,0,0-.19,2.14,2.07,2.07,0,0,0,1,.73,15.52,15.52,0,0,0,2.27.78q1.5.42,4.1,1,3.16.81,5.49,1.63a13.33,13.33,0,0,1,3.86,2,7.45,7.45,0,0,1,2.28,3,11.25,11.25,0,0,1,.75,4.41,10.28,10.28,0,0,1-1,4.52,10.6,10.6,0,0,1-2.83,3.6,13.68,13.68,0,0,1-4.44,2.39A18.27,18.27,0,0,1,105.76,48Z"/><path class="cls-1" d="M142.56,48a18.88,18.88,0,0,1-6.86-1.2,14.8,14.8,0,0,1-5.35-3.5,15.65,15.65,0,0,1-3.46-5.64,22.09,22.09,0,0,1-1.22-7.6,22.18,22.18,0,0,1,1.19-7.49,16.2,16.2,0,0,1,3.33-5.64,14.57,14.57,0,0,1,5.13-3.56,17,17,0,0,1,6.61-1.25,17.8,17.8,0,0,1,6.75,1.22,14.13,14.13,0,0,1,5.13,3.52,15.61,15.61,0,0,1,3.27,5.64,23.36,23.36,0,0,1,1.14,7.57v2.72H134.58a12.55,12.55,0,0,0,1,3.53,8.63,8.63,0,0,0,1.75,2.5,6.79,6.79,0,0,0,2.36,1.5,8,8,0,0,0,2.83.5,7.07,7.07,0,0,0,2.25-.38,6.43,6.43,0,0,0,2-1.11,6,6,0,0,0,1.49-1.8,5.36,5.36,0,0,0,.61-2.47h8.94a16.16,16.16,0,0,1-1.81,5.53,13.89,13.89,0,0,1-3.36,4,14.41,14.41,0,0,1-4.61,2.5A17.48,17.48,0,0,1,142.56,48Zm6.53-22.38a8.86,8.86,0,0,0-2.67-4.75,7.15,7.15,0,0,0-8.93,0,8.71,8.71,0,0,0-2.72,4.75ZM154.16,0l-8.72,11.16H138L143.34,0Z"/><path class="cls-1" d="M174.51,14.66a13,13,0,0,1,3.58-1.89,12.45,12.45,0,0,1,4-.64,14.3,14.3,0,0,1,6.16,1.27A12.51,12.51,0,0,1,192.8,17a16.23,16.23,0,0,1,2.8,5.6,25.77,25.77,0,0,1,1,7.24,23.48,23.48,0,0,1-1.13,7.49A17.49,17.49,0,0,1,192.31,43a13.89,13.89,0,0,1-4.69,3.67,13.38,13.38,0,0,1-5.86,1.3,17.15,17.15,0,0,1-3.89-.41,11.81,11.81,0,0,1-3.36-1.38v1H166V.88h8.47Zm0,23.2a9.82,9.82,0,0,0,6.91,3,5.32,5.32,0,0,0,4.7-2.77q1.74-2.77,1.74-8.24,0-5.22-1.64-7.86a5.12,5.12,0,0,0-4.58-2.64q-3.72,0-7.13,4.5Z"/><path class="cls-1" d="M224.31,45.49A18.36,18.36,0,0,1,214.62,48a14.94,14.94,0,0,1-4.82-.75A11.5,11.5,0,0,1,206,45.13a10.15,10.15,0,0,1-2.56-3.33,9.71,9.71,0,0,1-.94-4.28q0-12.44,20.51-12.44h1.34a16.51,16.51,0,0,0-.22-2.47,3.63,3.63,0,0,0-.83-1.8,3.94,3.94,0,0,0-1.86-1.11,11.54,11.54,0,0,0-3.28-.38q-6.1,0-6.35,5.41h-8.53q.72-12.6,15.23-12.6a27.24,27.24,0,0,1,6,.59,10.7,10.7,0,0,1,4.49,2.09,9.59,9.59,0,0,1,2.84,4.1,18.43,18.43,0,0,1,1,6.57V47.27h-8.44Zm0-13.51h-2.47q-10.79,0-10.79,5.25a3,3,0,0,0,1.42,2.67,6.83,6.83,0,0,0,3.77.92,11.77,11.77,0,0,0,2.34-.23,11.45,11.45,0,0,0,2.22-.69,8.89,8.89,0,0,0,2-1.14,7.72,7.72,0,0,0,1.55-1.59Z"/><path class="cls-1" d="M255.23,48q-14.29,0-15.16-12.94h8.66q.06,5.75,6.44,5.75a7.29,7.29,0,0,0,4.24-1,3.08,3.08,0,0,0,1.45-2.59,2.1,2.1,0,0,0-.31-1.19,2.93,2.93,0,0,0-1.19-.89,16.13,16.13,0,0,0-2.45-.88q-1.58-.45-4.11-1.08-3.09-.75-5.31-1.52a12.51,12.51,0,0,1-3.67-1.91,6.83,6.83,0,0,1-2.14-2.81,11.32,11.32,0,0,1-.69-4.27,9.39,9.39,0,0,1,.94-4.17,9.84,9.84,0,0,1,2.66-3.33,13,13,0,0,1,4.16-2.22,17.15,17.15,0,0,1,5.44-.81q13.85,0,14.13,11.63h-8.35q-.31-4.44-5.38-4.44a10.63,10.63,0,0,0-2,.19,6.07,6.07,0,0,0-1.64.55,3.16,3.16,0,0,0-1.08.88,2.14,2.14,0,0,0-.19,2.14,2.07,2.07,0,0,0,1,.73,15.52,15.52,0,0,0,2.27.78q1.5.42,4.1,1,3.16.81,5.49,1.63a13.33,13.33,0,0,1,3.86,2,7.45,7.45,0,0,1,2.28,3,11.25,11.25,0,0,1,.75,4.41,10.28,10.28,0,0,1-1,4.52,10.6,10.6,0,0,1-2.83,3.6,13.68,13.68,0,0,1-4.44,2.39A18.27,18.27,0,0,1,255.23,48Z"/><path class="cls-1" d="M292,47a24.73,24.73,0,0,1-2.94.58,20.16,20.16,0,0,1-2.53.17,13.19,13.19,0,0,1-4.77-.7A5.59,5.59,0,0,1,279,44.94a8.19,8.19,0,0,1-1.2-3.47,36.52,36.52,0,0,1-.28-4.83V20.07h-3.88V12.94h3.88V5.06h8.53v7.88h5.13v7.13h-5.13V36.89a13.11,13.11,0,0,0,.11,1.91,3.64,3.64,0,0,0,.31,1.11,1,1,0,0,0,.52.52,1.83,1.83,0,0,0,.69.13,16.44,16.44,0,0,0,1.86-.13q1.08-.12,2.39-.34Z"/><path class="cls-1" d="M305,9.72h-8.44V.88H305Zm0,37.55h-8.44V12.94H305Z"/><path class="cls-1" d="M328.38,48a18.88,18.88,0,0,1-6.86-1.2,14.8,14.8,0,0,1-5.35-3.5,15.65,15.65,0,0,1-3.46-5.64,22.09,22.09,0,0,1-1.22-7.6,22.18,22.18,0,0,1,1.19-7.49A16.2,16.2,0,0,1,316,16.94a14.57,14.57,0,0,1,5.13-3.56,17,17,0,0,1,6.61-1.25,17.8,17.8,0,0,1,6.75,1.22,14.13,14.13,0,0,1,5.13,3.52,15.61,15.61,0,0,1,3.27,5.64A23.36,23.36,0,0,1,344,30.07v2.72H320.41a12.55,12.55,0,0,0,1,3.53,8.63,8.63,0,0,0,1.75,2.5,6.79,6.79,0,0,0,2.36,1.5,8,8,0,0,0,2.83.5,7.07,7.07,0,0,0,2.25-.38,6.43,6.43,0,0,0,2-1.11,6,6,0,0,0,1.49-1.8,5.36,5.36,0,0,0,.61-2.47h8.94a16.16,16.16,0,0,1-1.81,5.53,13.89,13.89,0,0,1-3.36,4,14.41,14.41,0,0,1-4.61,2.5A17.48,17.48,0,0,1,328.38,48Zm6.53-22.38a8.86,8.86,0,0,0-2.67-4.75,7.15,7.15,0,0,0-8.93,0,8.71,8.71,0,0,0-2.72,4.75Z"/><path class="cls-1" d="M360.3,15a12.71,12.71,0,0,1,8-2.84q12.16,0,12.16,13.1v22H371.9V25.48a7.69,7.69,0,0,0-1-4.53,4,4,0,0,0-3.41-1.38q-3.44,0-7.16,4.16V47.27h-8.47V12.94h8.47Z"/><path class="cls-1" d="M129.08,87.17a13,13,0,0,1,3.58-1.89,12.45,12.45,0,0,1,4-.64,14.3,14.3,0,0,1,6.16,1.27,12.51,12.51,0,0,1,4.53,3.6,16.23,16.23,0,0,1,2.8,5.6,25.77,25.77,0,0,1,1,7.24,23.48,23.48,0,0,1-1.13,7.49,17.49,17.49,0,0,1-3.11,5.74,13.89,13.89,0,0,1-4.69,3.67,13.38,13.38,0,0,1-5.86,1.3,17.15,17.15,0,0,1-3.89-.41,11.81,11.81,0,0,1-3.36-1.38v13.16h-8.47V85.45h8.47Zm0,23.2a9.82,9.82,0,0,0,6.91,3,5.32,5.32,0,0,0,4.7-2.77q1.74-2.77,1.74-8.24,0-5.22-1.64-7.86a5.12,5.12,0,0,0-4.58-2.64q-3.72,0-7.13,4.5Z"/><path class="cls-1" d="M173.72,120.53a18.88,18.88,0,0,1-6.86-1.2,14.8,14.8,0,0,1-5.35-3.5,15.65,15.65,0,0,1-3.46-5.64,24.23,24.23,0,0,1,0-15.08,16.2,16.2,0,0,1,3.33-5.64,14.57,14.57,0,0,1,5.13-3.56,17,17,0,0,1,6.61-1.25,17.8,17.8,0,0,1,6.75,1.22A14.13,14.13,0,0,1,185,89.37,15.61,15.61,0,0,1,188.24,95a23.36,23.36,0,0,1,1.14,7.57v2.72H165.75a12.55,12.55,0,0,0,1,3.53,8.63,8.63,0,0,0,1.75,2.5,6.79,6.79,0,0,0,2.36,1.5,8,8,0,0,0,2.83.5A7.07,7.07,0,0,0,176,113a6.43,6.43,0,0,0,2-1.11,6,6,0,0,0,1.49-1.8,5.36,5.36,0,0,0,.61-2.47H189a16.16,16.16,0,0,1-1.81,5.53,13.89,13.89,0,0,1-3.36,4,14.41,14.41,0,0,1-4.61,2.5A17.48,17.48,0,0,1,173.72,120.53Zm6.53-22.38a8.86,8.86,0,0,0-2.67-4.75,7.15,7.15,0,0,0-8.93,0,8.71,8.71,0,0,0-2.72,4.75Z"/><path class="cls-1" d="M212,119.49a24.73,24.73,0,0,1-2.94.58,20.16,20.16,0,0,1-2.53.17,13.19,13.19,0,0,1-4.77-.7,5.59,5.59,0,0,1-2.69-2.09,8.19,8.19,0,0,1-1.2-3.47,36.52,36.52,0,0,1-.28-4.83V92.58h-3.88V85.45h3.88V77.57h8.53v7.88h5.13v7.13h-5.13V109.4a13.11,13.11,0,0,0,.11,1.91,3.64,3.64,0,0,0,.31,1.11,1,1,0,0,0,.52.52,1.83,1.83,0,0,0,.69.13,16.44,16.44,0,0,0,1.86-.13q1.08-.12,2.39-.34Z"/><path class="cls-1" d="M225,82.23h-8.44V73.38H225Zm0,37.55h-8.44V85.45H225Z"/><path class="cls-1" d="M248.31,119.49a24.73,24.73,0,0,1-2.94.58,20.16,20.16,0,0,1-2.53.17,13.19,13.19,0,0,1-4.77-.7,5.59,5.59,0,0,1-2.69-2.09,8.19,8.19,0,0,1-1.2-3.47,36.52,36.52,0,0,1-.28-4.83V92.58H230V85.45h3.88V77.57h8.53v7.88h5.13v7.13h-5.13V109.4a13.11,13.11,0,0,0,.11,1.91,3.64,3.64,0,0,0,.31,1.11,1,1,0,0,0,.52.52,1.83,1.83,0,0,0,.69.13,16.44,16.44,0,0,0,1.86-.13q1.08-.12,2.39-.34Z"/></g></g></svg>