<?xml version="1.0" encoding="utf-8"?>
<!-- Generator: Adobe Illustrator 22.0.1, SVG Export Plug-In . SVG Version: 6.00 Build 0)  -->
<svg version="1.1" id="Calque_1" xmlns="http://www.w3.org/2000/svg" xmlns:xlink="http://www.w3.org/1999/xlink" x="0px" y="0px"
	 viewBox="0 0 380.4 146.1" style="enable-background:new 0 0 380.4 146.1;" xml:space="preserve">
<style type="text/css">
	.st0{fill:#0000FF;}
</style>
<title>logo_gris</title>
<g id="Calque_2_1_">
	<g id="Calque_1-2">
		<path class="st0" d="M64.8,54.2L52.2,66.9l6.7,0.1c10.9,0,19.8,8.9,19.8,19.8s-8.9,19.8-19.8,19.8c-10.9,0-19.8-8.9-19.8-19.8
			v-6.7L26.3,92.8c3.4,17.9,20.7,29.7,38.6,26.3s29.7-20.7,26.3-38.6C88.6,67.2,78.2,56.7,64.8,54.2z"/>
		<polygon class="st0" points="25.8,93.3 25.8,146.1 39,146.1 39,80.1 		"/>
		<path class="st0" d="M13.3,33.9c0-10.9,8.8-19.8,19.8-19.8c8.5,0,16.1,5.4,18.8,13.5l10-10c-9-15.8-29.2-21.4-45-12.4
			s-21.4,29.2-12.4,45c4.8,8.4,13,14.3,22.5,16.1l12.6-12.6h-6.5C22.2,53.7,13.3,44.9,13.3,33.9C13.3,33.9,13.3,33.9,13.3,33.9z"/>
		<path class="st0" d="M105.8,48c-9.5,0-14.6-4.3-15.2-12.9h8.7c0,3.8,2.2,5.8,6.4,5.8c1.5,0.1,3-0.2,4.2-1c0.9-0.6,1.4-1.5,1.4-2.6
			c0-0.4-0.1-0.8-0.3-1.2c-0.3-0.4-0.7-0.7-1.2-0.9c-0.8-0.4-1.6-0.7-2.4-0.9c-1.1-0.3-2.4-0.7-4.1-1.1c-2.1-0.5-3.8-1-5.3-1.5
			c-1.3-0.4-2.6-1.1-3.7-1.9c-0.9-0.7-1.7-1.7-2.1-2.8c-0.5-1.4-0.7-2.8-0.7-4.3c0-1.4,0.3-2.9,0.9-4.2c0.6-1.3,1.5-2.4,2.7-3.3
			c1.2-1,2.6-1.7,4.2-2.2c1.8-0.6,3.6-0.8,5.4-0.8c9.2,0,13.9,3.9,14.1,11.6h-8.3c-0.2-3-2-4.4-5.4-4.4c-0.7,0-1.3,0.1-2,0.2
			c-0.6,0.1-1.1,0.3-1.6,0.5c-0.4,0.2-0.8,0.5-1.1,0.9c-0.4,0.6-0.5,1.4-0.2,2.1c0.3,0.3,0.6,0.6,1,0.7c0.7,0.3,1.5,0.6,2.3,0.8
			c1,0.3,2.4,0.6,4.1,1c2.1,0.5,3.9,1.1,5.5,1.6c1.4,0.5,2.7,1.1,3.9,2c1,0.8,1.8,1.8,2.3,3c0.5,1.4,0.8,2.9,0.8,4.4
			c0,1.6-0.3,3.1-1,4.5c-0.7,1.4-1.6,2.6-2.8,3.6c-1.3,1.1-2.8,1.9-4.4,2.4C109.8,47.8,107.8,48.1,105.8,48z"/>
		<path class="st0" d="M142.6,48c-2.3,0-4.7-0.4-6.9-1.2c-2-0.8-3.8-2-5.4-3.5c-1.5-1.6-2.7-3.5-3.5-5.6c-0.8-2.4-1.3-5-1.2-7.6
			c0-2.5,0.4-5.1,1.2-7.5c0.7-2.1,1.8-4,3.3-5.6c1.4-1.5,3.2-2.8,5.1-3.6c2.1-0.9,4.3-1.3,6.6-1.3c2.3,0,4.6,0.4,6.8,1.2
			c2,0.8,3.7,2,5.1,3.5c1.5,1.6,2.6,3.6,3.3,5.6c0.8,2.4,1.2,5,1.1,7.6v2.7h-23.6c0.2,1.2,0.5,2.4,1,3.5c0.4,0.9,1,1.8,1.8,2.5
			c0.7,0.7,1.5,1.2,2.4,1.5c0.9,0.3,1.9,0.5,2.8,0.5c0.8,0,1.5-0.1,2.3-0.4c0.7-0.2,1.4-0.6,2-1.1c0.6-0.5,1.1-1.1,1.5-1.8
			c0.4-0.8,0.6-1.6,0.6-2.5h8.9c-0.3,1.9-0.9,3.8-1.8,5.5c-0.9,1.5-2,2.9-3.4,4c-1.4,1.1-2.9,2-4.6,2.5
			C146.3,47.7,144.4,48,142.6,48z M149.1,25.6c-0.4-1.8-1.3-3.5-2.7-4.8c-2.6-2.1-6.3-2.1-8.9,0c-1.4,1.2-2.3,2.9-2.7,4.8H149.1z
			 M154.2,0l-8.7,11.2H138L143.3,0H154.2z"/>
		<path class="st0" d="M174.5,14.7c1.1-0.8,2.3-1.5,3.6-1.9c1.3-0.4,2.6-0.6,4-0.6c2.1,0,4.2,0.4,6.2,1.3c1.8,0.8,3.3,2.1,4.6,3.6
			c1.3,1.7,2.2,3.6,2.8,5.6c0.7,2.4,1,4.8,1,7.2c0,2.5-0.4,5.1-1.1,7.5c-0.7,2.1-1.8,4-3.2,5.7c-1.3,1.5-2.9,2.8-4.7,3.7
			c-1.8,0.9-3.8,1.3-5.9,1.3c-1.3,0-2.6-0.1-3.9-0.4c-1.2-0.3-2.3-0.7-3.4-1.4v1H166V0.9h8.5L174.5,14.7z M174.5,37.9
			c1.8,1.9,4.3,3,6.9,3c2,0,3.8-1.1,4.7-2.8c1.2-1.8,1.7-4.6,1.7-8.2c0-3.5-0.5-6.1-1.6-7.9c-0.9-1.7-2.7-2.7-4.6-2.6
			c-2.5,0-4.9,1.5-7.1,4.5V37.9z"/>
		<path class="st0" d="M224.3,45.5c-2.9,1.7-6.3,2.6-9.7,2.5c-1.6,0-3.3-0.2-4.8-0.8c-1.4-0.5-2.7-1.2-3.8-2.1
			c-1.1-0.9-1.9-2.1-2.6-3.3c-0.6-1.3-1-2.8-0.9-4.3c0-8.3,6.8-12.4,20.5-12.4h1.3c0-0.8-0.1-1.7-0.2-2.5c-0.1-0.7-0.4-1.3-0.8-1.8
			c-0.5-0.5-1.1-0.9-1.9-1.1c-1.1-0.3-2.2-0.4-3.3-0.4c-4.1,0-6.2,1.8-6.4,5.4h-8.5c0.5-8.4,5.6-12.6,15.2-12.6c2,0,4,0.2,6,0.6
			c1.6,0.3,3.2,1.1,4.5,2.1c1.3,1.1,2.3,2.5,2.8,4.1c0.7,2.1,1.1,4.3,1,6.6v21.8h-8.4L224.3,45.5z M224.3,32h-2.5
			c-7.2,0-10.8,1.7-10.8,5.3c0,1.1,0.5,2.1,1.4,2.7c1.1,0.7,2.5,1,3.8,0.9c0.8,0,1.6-0.1,2.3-0.2c0.8-0.2,1.5-0.4,2.2-0.7
			c0.7-0.3,1.4-0.7,2-1.1c0.6-0.5,1.1-1,1.6-1.6L224.3,32z"/>
		<path class="st0" d="M255.2,48c-9.5,0-14.6-4.3-15.2-12.9h8.7c0,3.8,2.2,5.8,6.4,5.8c1.5,0.1,3-0.2,4.2-1c0.9-0.6,1.4-1.5,1.5-2.6
			c0-0.4-0.1-0.8-0.3-1.2c-0.3-0.4-0.7-0.7-1.2-0.9c-0.8-0.4-1.6-0.7-2.5-0.9c-1.1-0.3-2.4-0.7-4.1-1.1c-2.1-0.5-3.8-1-5.3-1.5
			c-1.3-0.4-2.6-1.1-3.7-1.9c-0.9-0.7-1.7-1.7-2.1-2.8c-0.5-1.4-0.7-2.8-0.7-4.3c0-1.4,0.3-2.9,0.9-4.2c0.6-1.3,1.5-2.4,2.7-3.3
			c1.2-1,2.6-1.7,4.2-2.2c1.8-0.6,3.6-0.8,5.4-0.8c9.2,0,13.9,3.9,14.1,11.6H260c-0.2-3-2-4.4-5.4-4.4c-0.7,0-1.3,0.1-2,0.2
			c-0.6,0.1-1.1,0.3-1.6,0.5c-0.4,0.2-0.8,0.5-1.1,0.9c-0.4,0.6-0.5,1.4-0.2,2.1c0.3,0.3,0.6,0.6,1,0.7c0.7,0.3,1.5,0.6,2.3,0.8
			c1,0.3,2.4,0.6,4.1,1c2.1,0.5,3.9,1.1,5.5,1.6c1.4,0.5,2.7,1.1,3.9,2c1,0.8,1.8,1.8,2.3,3c0.5,1.4,0.8,2.9,0.8,4.4
			c0,1.6-0.3,3.1-1,4.5c-0.7,1.4-1.6,2.6-2.8,3.6c-1.3,1.1-2.8,1.9-4.4,2.4C259.2,47.8,257.2,48,255.2,48z"/>
		<path class="st0" d="M292,47c-1,0.3-1.9,0.4-2.9,0.6c-0.8,0.1-1.7,0.2-2.5,0.2c-1.6,0.1-3.2-0.2-4.8-0.7c-1.1-0.4-2.1-1.1-2.8-2.1
			c-0.7-1.1-1.1-2.2-1.2-3.5c-0.2-1.6-0.3-3.2-0.3-4.8V20.1h-3.9v-7.1h3.9V5.1h8.5v7.9h5.1v7.1H286v16.8c0,0.6,0,1.3,0.1,1.9
			c0,0.4,0.1,0.8,0.3,1.1c0.1,0.2,0.3,0.4,0.5,0.5c0.2,0.1,0.5,0.1,0.7,0.1c0.6,0,1.2-0.1,1.9-0.1c0.7-0.1,1.5-0.2,2.4-0.3L292,47z"
			/>
		<path class="st0" d="M305,9.7h-8.4V0.9h8.4V9.7z M305,47.3h-8.4V12.9h8.4V47.3z"/>
		<path class="st0" d="M328.4,48c-2.3,0-4.7-0.4-6.9-1.2c-2-0.8-3.8-2-5.4-3.5c-1.5-1.6-2.7-3.5-3.5-5.6c-0.8-2.4-1.3-5-1.2-7.6
			c0-2.5,0.4-5.1,1.2-7.5c0.7-2.1,1.8-4,3.3-5.6c1.4-1.5,3.2-2.8,5.1-3.6c2.1-0.9,4.3-1.3,6.6-1.3c2.3,0,4.6,0.4,6.8,1.2
			c2,0.8,3.7,2,5.1,3.5c1.5,1.6,2.6,3.6,3.3,5.6c0.8,2.4,1.2,5,1.1,7.6v2.7h-23.6c0.2,1.2,0.5,2.4,1,3.5c0.4,0.9,1,1.8,1.8,2.5
			c0.7,0.7,1.5,1.2,2.4,1.5c0.9,0.3,1.9,0.5,2.8,0.5c0.8,0,1.5-0.1,2.3-0.4c0.7-0.2,1.4-0.6,2-1.1c0.6-0.5,1.1-1.1,1.5-1.8
			c0.4-0.8,0.6-1.6,0.6-2.5h8.9c-0.3,1.9-0.9,3.8-1.8,5.5c-0.9,1.5-2,2.9-3.4,4c-1.4,1.1-2.9,2-4.6,2.5
			C332.1,47.7,330.2,48,328.4,48z M334.9,25.6c-0.4-1.8-1.3-3.5-2.7-4.8c-2.6-2.1-6.3-2.1-8.9,0c-1.4,1.2-2.3,2.9-2.7,4.8H334.9z"/>
		<path class="st0" d="M360.3,15c2.3-1.8,5.1-2.8,8-2.8c8.1,0,12.2,4.4,12.2,13.1v22h-8.6V25.5c0.1-1.6-0.2-3.2-1-4.5
			c-0.8-1-2.1-1.5-3.4-1.4c-2.3,0-4.7,1.4-7.2,4.2v23.5h-8.5V12.9h8.5L360.3,15z"/>
		<path class="st0" d="M129.1,87.2c1.1-0.8,2.3-1.5,3.6-1.9c1.3-0.4,2.6-0.6,4-0.6c2.1,0,4.2,0.4,6.2,1.3c1.8,0.8,3.3,2.1,4.5,3.6
			c1.3,1.7,2.2,3.6,2.8,5.6c0.7,2.4,1,4.8,1,7.2c0,2.5-0.4,5.1-1.1,7.5c-0.7,2.1-1.7,4-3.1,5.7c-1.3,1.5-2.9,2.8-4.7,3.7
			c-1.8,0.9-3.8,1.3-5.9,1.3c-1.3,0-2.6-0.1-3.9-0.4c-1.2-0.3-2.3-0.7-3.4-1.4v13.2h-8.5V85.4h8.5L129.1,87.2z M129.1,110.4
			c1.8,1.9,4.3,3,6.9,3c2,0,3.8-1.1,4.7-2.8c1.2-1.8,1.7-4.6,1.7-8.2c0-3.5-0.5-6.1-1.6-7.9c-0.9-1.7-2.7-2.7-4.6-2.6
			c-2.5,0-4.9,1.5-7.1,4.5V110.4z"/>
		<path class="st0" d="M173.7,120.5c-2.3,0-4.7-0.4-6.9-1.2c-2-0.8-3.8-2-5.4-3.5c-1.5-1.6-2.7-3.5-3.5-5.6
			c-1.6-4.9-1.6-10.2,0-15.1c0.7-2.1,1.8-4,3.3-5.6c1.4-1.5,3.2-2.8,5.1-3.6c2.1-0.9,4.3-1.3,6.6-1.3c2.3,0,4.6,0.4,6.8,1.2
			c1.9,0.8,3.7,2,5.1,3.5c1.5,1.6,2.6,3.5,3.2,5.6c0.8,2.4,1.2,5,1.1,7.6v2.7h-23.6c0.2,1.2,0.5,2.4,1,3.5c0.4,0.9,1,1.8,1.8,2.5
			c0.7,0.7,1.5,1.2,2.4,1.5c0.9,0.3,1.9,0.5,2.8,0.5c0.8,0,1.6-0.1,2.3-0.3c0.7-0.2,1.4-0.6,2-1.1c0.6-0.5,1.1-1.1,1.5-1.8
			c0.4-0.8,0.6-1.6,0.6-2.5h8.9c-0.3,1.9-0.9,3.8-1.8,5.5c-0.9,1.5-2,2.9-3.4,4c-1.4,1.1-2.9,2-4.6,2.5
			C177.4,120.2,175.6,120.5,173.7,120.5z M180.3,98.2c-0.4-1.8-1.3-3.5-2.7-4.8c-2.6-2.1-6.3-2.1-8.9,0c-1.4,1.2-2.3,2.9-2.7,4.8
			H180.3z"/>
		<path class="st0" d="M212,119.5c-1,0.3-1.9,0.4-2.9,0.6c-0.8,0.1-1.7,0.2-2.5,0.2c-1.6,0.1-3.2-0.2-4.8-0.7
			c-1.1-0.4-2-1.1-2.7-2.1c-0.7-1.1-1.1-2.2-1.2-3.5c-0.2-1.6-0.3-3.2-0.3-4.8V92.6h-3.9v-7.1h3.9v-7.9h8.5v7.9h5.1v7.1h-5.1v16.8
			c0,0.6,0,1.3,0.1,1.9c0,0.4,0.1,0.8,0.3,1.1c0.1,0.2,0.3,0.4,0.5,0.5c0.2,0.1,0.5,0.1,0.7,0.1c0.6,0,1.2-0.1,1.9-0.1
			c0.7-0.1,1.5-0.2,2.4-0.3V119.5z"/>
		<path class="st0" d="M225,82.2h-8.4v-8.9h8.4V82.2z M225,119.8h-8.4V85.4h8.4V119.8z"/>
		<path class="st0" d="M248.3,119.5c-1,0.3-1.9,0.4-2.9,0.6c-0.8,0.1-1.7,0.2-2.5,0.2c-1.6,0.1-3.2-0.2-4.8-0.7
			c-1.1-0.4-2-1.1-2.7-2.1c-0.7-1.1-1.1-2.2-1.2-3.5c-0.2-1.6-0.3-3.2-0.3-4.8V92.6H230v-7.1h3.9v-7.9h8.5v7.9h5.1v7.1h-5.1v16.8
			c0,0.6,0,1.3,0.1,1.9c0,0.4,0.1,0.8,0.3,1.1c0.1,0.2,0.3,0.4,0.5,0.5c0.2,0.1,0.5,0.1,0.7,0.1c0.6,0,1.2-0.1,1.9-0.1
			c0.7-0.1,1.5-0.2,2.4-0.3L248.3,119.5z"/>
	</g>
</g>
</svg>
